<svg xmlns="http://www.w3.org/2000/svg" height="236.5" width="308"><defs><clipPath id="b"><ellipse fill="#fff" ry="12" rx="12.5" cy="12" cx="12.5" data-name="Ellipse 176"/></clipPath><clipPath id="c"><path transform="translate(-41.5 -124.7)" d="M49.889 124.7a8.389 8.389 0 018.389 8.389v15.983a8.389 8.389 0 01-8.389 8.389 8.389 8.389 0 01-8.389-8.389v-15.983a8.389 8.389 0 018.389-8.389z" data-name="Path 1897"/></clipPath><filter filterUnits="userSpaceOnUse" height="236.362" width="268.63" y="-.5" x="30.266" id="a"><feOffset/><feGaussianBlur result="blur" stdDeviation="7.5"/><feFlood flood-opacity=".102" flood-color="#5d5d5d"/><feComposite result="result1" in2="blur" operator="in"/><feComposite in2="result1" in="SourceGraphic"/></filter><filter filterUnits="userSpaceOnUse" height="78" width="118" y="6.578" x="7.766" id="d"><feOffset/><feGaussianBlur result="blur-2" stdDeviation="8"/><feFlood flood-opacity=".082"/><feComposite result="result1" in2="blur-2" operator="in"/><feComposite in2="result1" in="SourceGraphic"/></filter></defs><g data-name="Group 2461"><g filter="url(#a)" transform="translate(0 .5)"><path data-name="Union 1" d="M73.01 202.472H57.77a5 5 0 01-5-5V27a5 5 0 015-5H271.4a5 5 0 015 5v170.471a5 5 0 01-5 5H90.979l-8.985 10.89z" fill="#fff"/></g><path data-name="Path 2572" d="M135.307 40.638h-3.036v-2.892h3.456a.208.208 0 00.144-.036.186.186 0 00.036-.132v-.3a.166.166 0 00-.036-.12.208.208 0 00-.144-.036h-3.96a.208.208 0 00-.144.036.166.166 0 00-.036.12v7.62a.173.173 0 00.048.144.239.239 0 00.146.036h.324a.163.163 0 00.126-.036.24.24 0 00.03-.144l.012-3.648h3.036a.187.187 0 00.144-.042.211.211 0 00.036-.138v-.276a.163.163 0 00-.036-.126.24.24 0 00-.146-.03zm3.876-.8a.143.143 0 00.108-.168l-.048-.408a.219.219 0 00-.03-.084q-.018-.024-.078 0a2.682 2.682 0 00-.474.168q-.234.108-.444.216t-.378.216q-.168.108-.252.168v-.528a.187.187 0 00-.042-.144.211.211 0 00-.138-.036h-.312q-.156 0-.156.18v5.48a.24.24 0 00.03.144.163.163 0 00.126.036h.324a.159.159 0 00.18-.18v-4.452l.27-.132q.174-.084.39-.174.216-.09.45-.174a3.34 3.34 0 01.472-.132zm1.176-.42v5.48a.187.187 0 00.042.144.211.211 0 00.138.036h.3a.163.163 0 00.126-.036.24.24 0 00.03-.144v-5.484a.24.24 0 00-.03-.144.163.163 0 00-.126-.036h-.3a.211.211 0 00-.138.036.187.187 0 00-.042.144zm.732-1.62a.534.534 0 00-.078-.306.38.38 0 00-.332-.114.37.37 0 00-.33.12.54.54 0 00-.078.3.69.69 0 00.066.312q.066.132.342.132t.336-.132a.642.642 0 00.074-.316zm5.39 2.228v3.8l-.39.2q-.258.132-.564.252-.306.12-.618.21a2.023 2.023 0 01-.552.09 1.54 1.54 0 01-.582-.1.74.74 0 01-.372-.354 2.11 2.11 0 01-.2-.7 8.928 8.928 0 01-.06-1.152 9.338 9.338 0 01.066-1.212 2.333 2.333 0 01.228-.792.959.959 0 01.45-.432 1.762 1.762 0 01.732-.132 5.506 5.506 0 01.87.072 7.185 7.185 0 01.992.25zm.012-3.156v2.628l-.024.012a4.286 4.286 0 00-.984-.318 4.686 4.686 0 00-.8-.078 2.591 2.591 0 00-1.1.2 1.607 1.607 0 00-.684.6 2.591 2.591 0 00-.348.978 8.383 8.383 0 00-.1 1.35 8.635 8.635 0 00.084 1.284 2.637 2.637 0 00.294.918 1.347 1.347 0 00.564.546 1.935 1.935 0 00.876.188 2.424 2.424 0 00.684-.1 5.333 5.333 0 00.648-.234 4.407 4.407 0 00.534-.276l.354-.216v.546a.187.187 0 00.042.144.211.211 0 00.138.036h.312a.163.163 0 00.126-.036.24.24 0 00.03-.144V36.87q0-.192-.156-.192h-.312a.211.211 0 00-.138.036.208.208 0 00-.042.156zm5.832 7.524h.012a.742.742 0 00.288.636 1.487 1.487 0 00.84.084.307.307 0 00.144-.06.13.13 0 00.036-.1v-.236q0-.108-.132-.108a2.436 2.436 0 01-.254-.032.306.306 0 01-.15-.066.273.273 0 01-.078-.134 1.06 1.06 0 01-.024-.258v-2.954a4.339 4.339 0 00-.084-.906 1.374 1.374 0 00-.318-.648 1.4 1.4 0 00-.648-.384 3.831 3.831 0 00-1.086-.126q-.192 0-.438.012t-.51.042q-.264.03-.516.078a2.721 2.721 0 00-.444.12.193.193 0 00-.132.18l.048.216q.012.1.18.084.42-.048.888-.084.468-.036.852-.036a3.069 3.069 0 01.756.078 1.082 1.082 0 01.474.24.843.843 0 01.24.414 2.448 2.448 0 01.066.612v.54h-1.86a2.337 2.337 0 00-1.638.48 1.972 1.972 0 00-.51 1.5 1.739 1.739 0 00.36 1.194 1.509 1.509 0 001.176.4 3.8 3.8 0 00.732-.064 4.352 4.352 0 00.636-.174 4.523 4.523 0 00.564-.246q.264-.138.528-.294zm.012-2.22v1.644q-.168.1-.432.222t-.576.246a5.883 5.883 0 01-.636.2 2.363 2.363 0 01-.588.084 1.259 1.259 0 01-.846-.216 1.1 1.1 0 01-.234-.816 1.993 1.993 0 01.1-.672.989.989 0 01.276-.42 1 1 0 01.432-.216 2.44 2.44 0 01.564-.06zm3.874 4.872l2.64-7.68a.189.189 0 00.018-.1q-.006-.036-.078-.036h-.468a.1.1 0 00-.078.024.4.4 0 00-.042.084l-1.464 4.38-.2.7-.216-.66-1.6-4.38q-.036-.132-.132-.132h-.432q-.072 0-.084.042a.159.159 0 00.012.1l2.112 5.79-.648 1.868q-.036.144.1.144h.348a.239.239 0 00.144-.036.215.215 0 00.068-.108zm4.08-2.16a.98.98 0 00-.066-.336.827.827 0 00-.222-.324.2.2 0 00-.264-.012l-.408.336a.164.164 0 00-.072.12.171.171 0 00.024.1 1.12 1.12 0 01.192.348 1.156 1.156 0 01.072.38 1.184 1.184 0 01-.078.414.934.934 0 01-.27.378q-.084.084-.036.132l.144.156q.024.024.078.006a.2.2 0 00.078-.042 1.883 1.883 0 00.57-.648 1.969 1.969 0 00.258-1.008zm9.06.192h.492q.108 0 .06-.12l-2.5-7.656a.419.419 0 00-.062-.124.164.164 0 00-.138-.054h-.5a.168.168 0 00-.132.042.345.345 0 00-.06.138l-2.476 7.63q-.048.144.084.144h.336a.311.311 0 00.15-.03.236.236 0 00.09-.138l.648-2.032h3.2l.638 2.08a.158.158 0 00.17.12zm-2.052-6.156l1.056 3.356h-2.82l1.056-3.368.162-.532.084-.258q.03-.09.048-.156.018-.066.054-.222h.024q.036.156.054.222l.042.156q.024.09.078.264zm4.26 5.34v-3.8q.156-.084.414-.21t.558-.246q.3-.12.606-.21a1.993 1.993 0 01.558-.09 1.54 1.54 0 01.582.1.74.74 0 01.372.354 2.121 2.121 0 01.2.708 9.074 9.074 0 01.06 1.158 9.338 9.338 0 01-.066 1.212 2.179 2.179 0 01-.234.786 1 1 0 01-.45.426 1.72 1.72 0 01-.728.128 5.578 5.578 0 01-.882-.072 7.185 7.185 0 01-.99-.244zm0 2.736v-2.2l.012-.02a4.264 4.264 0 00.99.318 4.734 4.734 0 00.8.078 2.669 2.669 0 001.1-.2 1.561 1.561 0 00.69-.594 2.668 2.668 0 00.354-.984 8.007 8.007 0 00.1-1.356 8.635 8.635 0 00-.084-1.284 2.638 2.638 0 00-.294-.918 1.347 1.347 0 00-.564-.546 1.935 1.935 0 00-.882-.18 2.4 2.4 0 00-.69.1 5.487 5.487 0 00-.642.234 5.089 5.089 0 00-.534.27q-.234.138-.354.222v-.528a.187.187 0 00-.042-.144.211.211 0 00-.138-.032h-.326q-.156 0-.156.18v7.584q0 .192.156.192h.326a.211.211 0 00.138-.036.208.208 0 00.04-.156zm7.668-7.164a.143.143 0 00.108-.168l-.048-.408a.219.219 0 00-.03-.084q-.018-.024-.078 0a2.682 2.682 0 00-.474.168q-.234.108-.444.216t-.38.22q-.168.108-.252.168v-.528a.187.187 0 00-.042-.144.211.211 0 00-.138-.036h-.312q-.156 0-.156.18v5.48a.24.24 0 00.03.144.163.163 0 00.128.036h.324a.159.159 0 00.18-.18v-4.452l.27-.132q.174-.084.39-.174.216-.09.45-.174a3.34 3.34 0 01.474-.132zm8.6 5.136v-.408q0-.108-.132-.108h-1.664v-7.188a.2.2 0 00-.024-.1q-.024-.042-.12-.042h-.4a1.132 1.132 0 00-.36.06l-1.248.36a.129.129 0 00-.1.144v.19q0 .108.12.108h1.44v6.468h-1.624q-.12 0-.12.108v.408q0 .108.12.108h3.984q.132 0 .132-.108zm6.936-7.356v-.36q0-.132-.144-.132h-5.06q-.144 0-.144.132v.384q0 .108.12.108h4.5l-3.468 7q-.06.132.048.192l.444.192q.072.06.132-.06l3.516-7.2a.9.9 0 00.042-.144.7.7 0 00.018-.112z" fill="#9f9f9f"/><path data-name="Path 2571" d="M101.963 82.178a4.554 4.554 0 001.012-.11 2.389 2.389 0 00.853-.37 1.882 1.882 0 00.589-.676 2.228 2.228 0 00.219-1.044 2.167 2.167 0 00-.2-1.012 1.693 1.693 0 00-.539-.616 2.546 2.546 0 00-.775-.352q-.441-.12-.917-.22-.363-.066-.611-.127a1.327 1.327 0 01-.4-.159.59.59 0 01-.225-.259 1.049 1.049 0 01-.071-.424.931.931 0 01.28-.72 1.455 1.455 0 01.984-.259q.5 0 .941.044.441.044.819.1a.527.527 0 00.22-.016q.066-.028.1-.159l.11-.451a.351.351 0 00-.005-.187q-.03-.083-.217-.156a3.072 3.072 0 00-.528-.16 5.177 5.177 0 00-.566-.088q-.281-.028-.528-.039t-.4-.011a2.792 2.792 0 00-1.832.55 1.951 1.951 0 00-.665 1.6 1.917 1.917 0 00.2.924 1.585 1.585 0 00.539.583 2.789 2.789 0 00.787.341q.445.121.929.22a5.161 5.161 0 01.622.143 1.121 1.121 0 01.393.21.733.733 0 01.22.324 1.533 1.533 0 01.066.49q0 .968-1.408.968-.187 0-.434-.016t-.512-.038q-.264-.022-.528-.049l-.473-.05a.457.457 0 00-.2 0q-.061.022-.094.165l-.1.451a.351.351 0 00.006.187q.029.068.216.148a2.75 2.75 0 00.495.148q.286.061.578.1.292.039.568.054.273.018.482.018zm7.1-2.552v1.045q-.154.088-.352.182-.198.094-.407.171a2.991 2.991 0 01-.423.119 1.879 1.879 0 01-.385.044.791.791 0 01-.533-.138.669.669 0 01-.148-.5.9.9 0 01.242-.731 1.032 1.032 0 01.66-.193zm.066 1.826l.022.011a.783.783 0 00.324.528 1.191 1.191 0 00.622.143 2.042 2.042 0 00.253-.016q.131-.018.259-.04.264-.044.264-.231v-.462a.143.143 0 00-.044-.121.346.346 0 00-.165-.044 1.136 1.136 0 01-.209-.033.216.216 0 01-.116-.071.324.324 0 01-.055-.143 1.569 1.569 0 01-.017-.258v-2.124a4.833 4.833 0 00-.066-.836 1.3 1.3 0 00-.286-.633 1.417 1.417 0 00-.644-.4 3.665 3.665 0 00-1.137-.144q-.2 0-.446.016t-.5.044q-.253.028-.495.072a2.447 2.447 0 00-.418.11.5.5 0 00-.231.148.245.245 0 00-.022.181l.1.407q.022.121.083.137a.674.674 0 00.225-.005q.165-.011.369-.033.204-.022.407-.033l.4-.022q.192-.011.324-.011a2.944 2.944 0 01.561.044.779.779 0 01.352.154.559.559 0 01.182.28 1.5 1.5 0 01.05.413v.286h-1.414a2.384 2.384 0 00-1.562.434 1.708 1.708 0 00-.506 1.4 2.633 2.633 0 00.072.638 1.2 1.2 0 00.242.489 1.132 1.132 0 00.462.319 2 2 0 00.731.116 3.033 3.033 0 001.081-.194 3.7 3.7 0 00.943-.517zm10.412.417v-3.234a6.685 6.685 0 00-.044-.781 1.658 1.658 0 00-.209-.655 1.166 1.166 0 00-.484-.445 1.88 1.88 0 00-.858-.165 2.393 2.393 0 00-1.023.231 5.342 5.342 0 00-.913.539 1.252 1.252 0 00-.644-.622 2.412 2.412 0 00-.863-.149 2.066 2.066 0 00-.451.072 3.8 3.8 0 00-.434.148 2.745 2.745 0 00-.4.2l-.352.226-.011-.011v-.315a.194.194 0 00-.22-.22h-.781q-.2 0-.2.22v4.961q0 .209.2.209h.792a.185.185 0 00.209-.209v-3.674l.341-.165q.187-.088.38-.165a2.76 2.76 0 01.374-.121 1.394 1.394 0 01.325-.044.625.625 0 01.572.242 1.424 1.424 0 01.154.748v3.179q0 .209.187.209h.8a.2.2 0 00.165-.055.241.241 0 00.044-.154v-3.113q0-.187-.005-.33-.005-.143-.011-.231l.308-.154a3.718 3.718 0 01.368-.159q.192-.071.385-.127a1.275 1.275 0 01.347-.055.694.694 0 01.583.214 1.458 1.458 0 01.165.831v3.124a.185.185 0 00.214.209h.792a.185.185 0 00.16-.055.266.266 0 00.038-.154zm7.876-2.409h-.036l-.649-1.4-1.5-3.08a.385.385 0 00-.121-.165.44.44 0 00-.231-.044h-.682a.175.175 0 00-.2.2v6.9a.185.185 0 00.218.207h.8a.176.176 0 00.16-.06.271.271 0 00.038-.148v-4.412h.022l.363.77 1.254 2.563a.5.5 0 00.121.137.351.351 0 00.207.05h.418a.308.308 0 00.192-.055.492.492 0 00.127-.154l1.21-2.464.385-.847h.033v4.411q0 .209.22.209h.8a.176.176 0 00.16-.06.271.271 0 00.038-.148v-6.9a.251.251 0 00-.038-.137.163.163 0 00-.145-.055h-.638a.394.394 0 00-.236.055.467.467 0 00-.127.165l-1.5 3.036zm8.822 2.112l-.066-.4q-.022-.139-.092-.161a.439.439 0 00-.2 0q-.341.044-.753.072-.412.028-.666.027a1.628 1.628 0 01-.556-.083.753.753 0 01-.368-.291 1.4 1.4 0 01-.2-.55 5.045 5.045 0 01-.06-.858 2.385 2.385 0 01.264-1.3 1.053 1.053 0 01.935-.385q.286 0 .644.033l.7.066a.716.716 0 00.231-.011q.077-.022.11-.143l.077-.44a.263.263 0 00-.165-.308 2.218 2.218 0 00-.39-.127q-.215-.049-.44-.082t-.451-.044q-.226-.009-.412-.009a2.672 2.672 0 00-1.226.242 1.8 1.8 0 00-.715.632 2.362 2.362 0 00-.33.891 6.178 6.178 0 00-.083 1.007 7.2 7.2 0 00.077 1.072 2.258 2.258 0 00.325.9 1.742 1.742 0 00.715.616 2.811 2.811 0 001.237.228 6.964 6.964 0 00.88-.061 3.131 3.131 0 00.792-.192.336.336 0 00.187-.143.3.3 0 00-.001-.198zm2.233-3.278h-.022v-3.3a.293.293 0 00-.039-.16.176.176 0 00-.16-.06h-.825a.194.194 0 00-.22.22v6.875q0 .209.22.209h.825a.176.176 0 00.16-.06.271.271 0 00.039-.148v-1.792l.968-1.2 1.8 2.992a.639.639 0 00.138.154.349.349 0 00.218.054h1.012a.153.153 0 00.132-.06q.044-.061-.022-.17l-2.464-3.95 2.387-2.9q.077-.088.049-.154-.028-.066-.148-.066h-1a.472.472 0 00-.209.038.521.521 0 00-.154.127l-1.849 2.273zm8.316 1.331v1.045q-.154.088-.352.182-.198.094-.407.171a2.991 2.991 0 01-.418.121 1.879 1.879 0 01-.385.044.791.791 0 01-.534-.138.669.669 0 01-.149-.5.9.9 0 01.238-.732 1.032 1.032 0 01.66-.193zm.066 1.826l.022.011a.783.783 0 00.325.528 1.191 1.191 0 00.621.143 2.042 2.042 0 00.253-.016q.132-.016.264-.038.264-.044.264-.231v-.463a.143.143 0 00-.044-.121.346.346 0 00-.165-.044 1.136 1.136 0 01-.213-.033.216.216 0 01-.116-.071.324.324 0 01-.055-.143 1.569 1.569 0 01-.016-.258v-2.124a4.832 4.832 0 00-.066-.836 1.3 1.3 0 00-.286-.633 1.417 1.417 0 00-.644-.4 3.665 3.665 0 00-1.134-.144q-.2 0-.445.016t-.5.044q-.253.028-.495.072a2.447 2.447 0 00-.418.11.5.5 0 00-.231.148.246.246 0 00-.022.181l.1.407q.022.121.082.137a.674.674 0 00.226-.005q.165-.011.368-.033.203-.022.407-.033l.4-.022q.192-.011.324-.011a2.944 2.944 0 01.561.044.779.779 0 01.352.154.559.559 0 01.181.28 1.5 1.5 0 01.049.413v.286h-1.412a2.384 2.384 0 00-1.562.434 1.708 1.708 0 00-.506 1.4 2.633 2.633 0 00.071.638 1.2 1.2 0 00.242.489 1.132 1.132 0 00.462.319 2 2 0 00.732.116 3.033 3.033 0 001.083-.2 3.7 3.7 0 00.941-.511zm4.686-.913h-.044l-.55-1.639-.715-2.046q-.044-.121-.088-.143a.378.378 0 00-.154-.022h-.847q-.121 0-.138.066a.26.26 0 00.017.154l1.925 5.115-.693 1.855a.26.26 0 00-.016.154q.016.066.148.066h.748a.328.328 0 00.2-.044.372.372 0 00.1-.154l2.563-7a.3.3 0 00.022-.154q-.011-.066-.143-.066h-.814a.282.282 0 00-.176.044.3.3 0 00-.088.143l-.682 2.024-.165.484-.181.517z"/><path data-name="Path 2570" d="M106.446 117.823l-2.055-4.095a2.756 2.756 0 00.878-.457 2.488 2.488 0 00.592-.668 2.891 2.891 0 00.33-.8 3.543 3.543 0 00.105-.847 3.16 3.16 0 00-.24-1.29 2.375 2.375 0 00-.645-.877 2.6 2.6 0 00-.93-.495 3.738 3.738 0 00-1.08-.158h-3.06q-.26-.003-.26.242v9.45a.225.225 0 00.26.25h.645q.255 0 .255-.27v-3.915h1.965l1.92 3.985a.334.334 0 00.135.158.437.437 0 00.2.037h.85a.144.144 0 00.142-.075.208.208 0 00-.007-.175zm-1.365-6.885a2.275 2.275 0 01-.187 1 1.487 1.487 0 01-.48.585 1.674 1.674 0 01-.645.27 3.627 3.627 0 01-.688.065h-1.84v-3.645h1.875a3.487 3.487 0 01.727.075 1.771 1.771 0 01.63.262 1.312 1.312 0 01.443.528 1.964 1.964 0 01.165.86zm8.655 3a8.952 8.952 0 00-.142-1.215 2.726 2.726 0 00-.435-1.065 2.3 2.3 0 00-.907-.75 3.552 3.552 0 00-1.545-.285 2.974 2.974 0 00-1.635.39 2.68 2.68 0 00-.915.967 3.574 3.574 0 00-.4 1.245 9.114 9.114 0 00-.09 1.207 9.907 9.907 0 00.1 1.4 3.2 3.2 0 00.404 1.211 2.3 2.3 0 00.922.847 3.524 3.524 0 001.642.322q.27 0 .6-.03.33-.03.66-.083.33-.052.63-.128a3.408 3.408 0 00.51-.165.243.243 0 00.165-.3l-.059-.328q-.03-.15-.113-.18a.547.547 0 00-.232-.015q-.2.03-.458.06t-.548.053l-.57.045q-.285.022-.51.022a3.079 3.079 0 01-.892-.112 1.28 1.28 0 01-.608-.39 1.677 1.677 0 01-.345-.735 5.735 5.735 0 01-.12-1.132h4.23a.557.557 0 00.547-.247 1.2 1.2 0 00.114-.609zm-1.215-.09h-3.675a4.777 4.777 0 01.135-.915 1.994 1.994 0 01.315-.69 1.4 1.4 0 01.547-.443 1.963 1.963 0 01.832-.157 2.019 2.019 0 01.96.195 1.444 1.444 0 01.555.51 1.963 1.963 0 01.262.712 4.7 4.7 0 01.069.788zm7.29 3.42h.03a1.026 1.026 0 00.323.675 1.245 1.245 0 00.772.195 3.192 3.192 0 00.525-.045.416.416 0 00.24-.1.25.25 0 00.06-.173v-.372q0-.18-.255-.195a2.362 2.362 0 01-.285-.038.28.28 0 01-.157-.082.376.376 0 01-.075-.18 2 2 0 01-.023-.345v-3.315a7.341 7.341 0 00-.075-1.095 1.724 1.724 0 00-.353-.84 1.805 1.805 0 00-.81-.54 4.277 4.277 0 00-1.433-.2q-.27 0-.608.015-.338.015-.682.052-.345.038-.66.1a4.239 4.239 0 00-.54.135.538.538 0 00-.218.15.2.2 0 00-.022.18l.09.39q.045.18.3.135.24-.03.525-.053l.57-.045q.285-.023.547-.03.262-.007.472-.008a2.221 2.221 0 011.372.315 1.415 1.415 0 01.383 1.14v.51h-2.07a3.029 3.029 0 00-2.145.623 2.526 2.526 0 00-.645 1.9 2.264 2.264 0 00.467 1.546 2 2 0 001.56.525 3.9 3.9 0 001.583-.3 11.4 11.4 0 001.237-.63zm.015-2.715v1.755q-.255.15-.578.3-.323.15-.667.277a5.262 5.262 0 01-.682.2 2.885 2.885 0 01-.623.075 1.371 1.371 0 01-.907-.225 1.141 1.141 0 01-.248-.857 1.476 1.476 0 01.4-1.215 1.738 1.738 0 011.1-.315zm5.445 3.18l-.06-.48q-.015-.15-.255-.15a1.442 1.442 0 01-.585-.083q-.165-.082-.165-.472v-8.77q0-.165-.068-.21a.368.368 0 00-.2-.045h-.6a.225.225 0 00-.257.255v9.15a2.279 2.279 0 00.052.5.888.888 0 00.188.39.9.9 0 00.375.247 1.776 1.776 0 00.615.09 2.039 2.039 0 00.412-.047 2.182 2.182 0 00.4-.12.236.236 0 00.148-.255zm9.24-.12l-.06-.345a.248.248 0 00-.09-.157.441.441 0 00-.24-.023l-.458.037q-.292.023-.412.023a3.148 3.148 0 01-.548-.037.663.663 0 01-.322-.143.494.494 0 01-.157-.27 2.033 2.033 0 01-.038-.435v-4.545h1.665q.165 0 .21-.06a.33.33 0 00.045-.2v-.43a.335.335 0 00-.045-.187q-.045-.068-.21-.068h-1.67v-1.845q0-.3-.255-.225l-.6.165a.438.438 0 00-.187.09.249.249 0 00-.058.195v1.625h-.84q-.255 0-.255.27v.42a.225.225 0 00.255.255h.825v4.89a2.629 2.629 0 00.075.652 1.228 1.228 0 00.255.5 1.14 1.14 0 00.495.322 2.393 2.393 0 00.8.113q.165 0 .4-.023.235-.023.48-.06.248-.038.465-.09a1.421 1.421 0 00.345-.129.28.28 0 00.13-.285zm2.28-8.79a.816.816 0 00-.12-.472q-.12-.172-.525-.173a.6.6 0 00-.518.18.786.786 0 00-.127.465 1.013 1.013 0 00.1.472q.1.2.54.2.42 0 .533-.195a.947.947 0 00.117-.477zm-.09 9v-6.8q0-.255-.24-.255h-.615a.368.368 0 00-.2.045q-.068.045-.068.21v6.8q0 .255.27.255h.615q.238 0 .238-.255zm12.39 0v-4.515a7.34 7.34 0 00-.075-1.1 2.158 2.158 0 00-.3-.847 1.476 1.476 0 00-.653-.548 2.76 2.76 0 00-1.132-.2 3.223 3.223 0 00-1.447.338 10.045 10.045 0 00-1.268.742 1.531 1.531 0 00-.653-.8 2.48 2.48 0 00-1.282-.27 2.781 2.781 0 00-.705.09 4.391 4.391 0 00-.667.233 5.607 5.607 0 00-.6.307l-.5.3h-.018v-.525q0-.255-.27-.255h-.615q-.24 0-.24.255v6.8q0 .255.24.255h.63a.225.225 0 00.255-.255v-5.31q.255-.135.57-.285.315-.15.638-.277a6.088 6.088 0 01.623-.21 2.1 2.1 0 01.559-.088.953.953 0 01.915.405 2.374 2.374 0 01.225 1.14l-.02 4.62q0 .255.225.255h.66a.225.225 0 00.255-.255v-4.485q0-.3-.007-.51a2.644 2.644 0 00-.023-.3l.5-.255q.3-.15.63-.285.33-.135.653-.233a2.061 2.061 0 01.593-.1 1.676 1.676 0 01.57.082.735.735 0 01.36.277 1.25 1.25 0 01.188.51 4.858 4.858 0 01.052.78v4.519a.225.225 0 00.249.255h.63a.225.225 0 00.255-.255zm7.635-3.885a8.952 8.952 0 00-.145-1.215 2.726 2.726 0 00-.435-1.065 2.3 2.3 0 00-.908-.75 3.552 3.552 0 00-1.545-.285 2.974 2.974 0 00-1.635.39 2.68 2.68 0 00-.915.967 3.574 3.574 0 00-.405 1.245 9.115 9.115 0 00-.09 1.207 9.907 9.907 0 00.1 1.4 3.2 3.2 0 00.413 1.208 2.3 2.3 0 00.92.851 3.524 3.524 0 001.642.322q.27 0 .6-.03.33-.03.66-.083.33-.052.63-.128a3.408 3.408 0 00.51-.165.243.243 0 00.165-.3l-.057-.329q-.03-.15-.112-.18a.547.547 0 00-.233-.015q-.2.03-.458.06t-.547.053l-.57.045q-.285.022-.51.022a3.079 3.079 0 01-.893-.112 1.28 1.28 0 01-.607-.39 1.677 1.677 0 01-.345-.735 5.735 5.735 0 01-.12-1.132h4.23a.557.557 0 00.548-.247 1.2 1.2 0 00.112-.609zm-1.215-.09h-3.675a4.777 4.777 0 01.135-.915 1.994 1.994 0 01.315-.69 1.4 1.4 0 01.548-.443 1.963 1.963 0 01.832-.157 2.019 2.019 0 01.96.195 1.444 1.444 0 01.555.51 1.963 1.963 0 01.263.712 4.7 4.7 0 01.067.788zm11.955 3.69l-.06-.315q-.03-.15-.112-.18a.49.49 0 00-.213-.015q-.225.03-.51.052l-.562.045q-.277.023-.54.038t-.448.015a2.311 2.311 0 01-.84-.135 1.151 1.151 0 01-.555-.458 2.261 2.261 0 01-.3-.862 8.543 8.543 0 01-.09-1.365 7.662 7.662 0 01.09-1.28 2.252 2.252 0 01.292-.832 1.166 1.166 0 01.548-.457 2.247 2.247 0 01.855-.142q.4 0 .967.052l1.027.1a.669.669 0 00.248-.015.191.191 0 00.142-.15l.06-.345a.438.438 0 00-.007-.18.2.2 0 00-.143-.135 2.979 2.979 0 00-.54-.173q-.3-.067-.607-.105-.307-.038-.607-.058-.3-.015-.525-.015a3.382 3.382 0 00-1.583.315 2.328 2.328 0 00-.915.84 3.116 3.116 0 00-.42 1.2 9.75 9.75 0 00-.1 1.395 10.632 10.632 0 00.1 1.485 3.13 3.13 0 00.421 1.22 2.224 2.224 0 00.915.825 3.526 3.526 0 001.583.3 10.355 10.355 0 001.206-.08 3.5 3.5 0 001.058-.27.264.264 0 00.165-.315zm7.115-3.24a9.122 9.122 0 00-.1-1.335 2.969 2.969 0 00-.427-1.178 2.413 2.413 0 00-.952-.84 3.619 3.619 0 00-1.658-.323 3.119 3.119 0 00-1.635.367 2.5 2.5 0 00-.908.923 3.433 3.433 0 00-.4 1.2 8.625 8.625 0 00-.09 1.185q0 .66.067 1.357a3.331 3.331 0 00.368 1.26 2.361 2.361 0 00.908.923 3.319 3.319 0 001.687.361 3.523 3.523 0 001.74-.36 2.363 2.363 0 00.938-.93 3.4 3.4 0 00.382-1.26 12.49 12.49 0 00.08-1.35zm-1.17.1a8.65 8.65 0 01-.075 1.223 2.129 2.129 0 01-.293.855 1.315 1.315 0 01-.6.5 2.546 2.546 0 01-1 .165 2.2 2.2 0 01-.945-.172 1.325 1.325 0 01-.57-.518 2.267 2.267 0 01-.285-.855 8.364 8.364 0 01-.075-1.2 8.364 8.364 0 01.075-1.2 2.267 2.267 0 01.285-.855 1.325 1.325 0 01.57-.517 2.2 2.2 0 01.945-.173 2.448 2.448 0 011 .173 1.362 1.362 0 01.6.51 2.129 2.129 0 01.293.855 8.524 8.524 0 01.07 1.214zm5.11 3.335l-.06-.48q-.015-.15-.255-.15a1.442 1.442 0 01-.585-.083q-.165-.082-.165-.472v-8.77q0-.165-.068-.21a.368.368 0 00-.2-.045h-.6a.225.225 0 00-.255.255v9.15a2.279 2.279 0 00.052.5.888.888 0 00.188.39.9.9 0 00.375.247 1.776 1.776 0 00.615.09 2.039 2.039 0 00.41-.047 2.182 2.182 0 00.4-.12.236.236 0 00.148-.255zm3.555 0l-.06-.48q-.015-.15-.255-.15a1.442 1.442 0 01-.585-.083q-.165-.082-.165-.472v-8.77q0-.165-.068-.21a.368.368 0 00-.2-.045h-.6a.225.225 0 00-.255.255v9.15a2.279 2.279 0 00.052.5.888.888 0 00.188.39.9.9 0 00.375.247 1.776 1.776 0 00.615.09 2.039 2.039 0 00.41-.047 2.182 2.182 0 00.4-.12.236.236 0 00.148-.255zm5.805-.465h.03a1.025 1.025 0 00.322.675 1.245 1.245 0 00.772.195 3.192 3.192 0 00.526-.045.416.416 0 00.24-.1.25.25 0 00.06-.173v-.372q0-.18-.255-.195a2.362 2.362 0 01-.285-.038.28.28 0 01-.158-.082.376.376 0 01-.075-.18 2 2 0 01-.022-.345v-3.315a7.34 7.34 0 00-.075-1.095 1.724 1.724 0 00-.353-.84 1.805 1.805 0 00-.81-.54 4.277 4.277 0 00-1.433-.2q-.27 0-.607.015-.337.015-.683.052-.345.038-.66.1a4.239 4.239 0 00-.54.135.538.538 0 00-.217.15.2.2 0 00-.022.18l.09.39q.045.18.3.135.24-.03.525-.053l.57-.045q.285-.023.548-.03.263-.007.472-.008a2.221 2.221 0 011.372.315 1.415 1.415 0 01.382 1.14v.51h-2.07a3.029 3.029 0 00-2.145.623 2.526 2.526 0 00-.645 1.9 2.264 2.264 0 00.466 1.546 2 2 0 001.56.525 3.9 3.9 0 001.583-.3 11.394 11.394 0 001.237-.63zm.015-2.715v1.755q-.255.15-.577.3-.322.15-.667.277a5.263 5.263 0 01-.683.2 2.885 2.885 0 01-.622.075 1.371 1.371 0 01-.908-.225 1.141 1.141 0 01-.248-.857 1.476 1.476 0 01.4-1.215 1.738 1.738 0 011.1-.315zm9.165-.175a8.54 8.54 0 00-.128-1.545 3.219 3.219 0 00-.45-1.185 2.072 2.072 0 00-.893-.758 3.448 3.448 0 00-1.44-.262 5.162 5.162 0 00-.93.1 7.159 7.159 0 00-1.2.352l-.015-.03v-3.262a.322.322 0 00-.052-.21.29.29 0 00-.217-.06h-.63a.29.29 0 00-.2.052.319.319 0 00-.052.217v9.466a1.156 1.156 0 00.052.338.439.439 0 00.308.262 4.443 4.443 0 00.585.157q.33.067.705.112.375.045.757.067.382.023.728.022a3.792 3.792 0 001.492-.253 2.222 2.222 0 00.945-.743 3.037 3.037 0 00.495-1.2 8.441 8.441 0 00.14-1.637zm-1.2.135a5.7 5.7 0 01-.135 1.388 1.9 1.9 0 01-.382.8 1.136 1.136 0 01-.607.36 3.562 3.562 0 01-.795.082q-.48 0-.983-.037t-.938-.128v-4.99a8.449 8.449 0 011.14-.248 7.37 7.37 0 011.05-.082 1.808 1.808 0 01.78.15 1.166 1.166 0 01.51.487 2.529 2.529 0 01.28.883 9.087 9.087 0 01.08 1.33zm8.715-.21a9.122 9.122 0 00-.1-1.335 2.969 2.969 0 00-.427-1.178 2.413 2.413 0 00-.952-.84 3.619 3.619 0 00-1.658-.323 3.119 3.119 0 00-1.635.367 2.5 2.5 0 00-.908.923 3.433 3.433 0 00-.4 1.2 8.625 8.625 0 00-.09 1.185q0 .66.067 1.357a3.331 3.331 0 00.368 1.26 2.361 2.361 0 00.908.923 3.319 3.319 0 001.688.36 3.523 3.523 0 001.74-.36 2.363 2.363 0 00.938-.93 3.4 3.4 0 00.382-1.26 12.49 12.49 0 00.084-1.354zm-1.17.1a8.65 8.65 0 01-.075 1.223 2.129 2.129 0 01-.293.855 1.315 1.315 0 01-.6.5 2.546 2.546 0 01-1 .165 2.2 2.2 0 01-.945-.172 1.325 1.325 0 01-.57-.518 2.267 2.267 0 01-.285-.855 8.364 8.364 0 01-.075-1.2 8.364 8.364 0 01.075-1.2 2.267 2.267 0 01.285-.855 1.325 1.325 0 01.57-.517 2.2 2.2 0 01.945-.173 2.448 2.448 0 011 .173 1.362 1.362 0 01.6.51 2.129 2.129 0 01.293.855 8.524 8.524 0 01.075 1.209zm6.795-2.895l-.06-.63a.327.327 0 00-.075-.173q-.045-.038-.18-.008a5.307 5.307 0 00-.615.173q-.33.113-.645.255-.315.142-.577.285a2.857 2.857 0 00-.412.263l-.03-.03v-.615q0-.255-.27-.255h-.63q-.24 0-.24.255v6.8q0 .255.24.255h.645a.225.225 0 00.255-.255v-5.3a2.78 2.78 0 01.42-.172q.285-.1.622-.2l.7-.2q.36-.1.66-.157.237-.021.192-.291zm5.49 5.76h.03a1.026 1.026 0 00.323.675 1.245 1.245 0 00.772.195 3.192 3.192 0 00.525-.045.416.416 0 00.24-.1.25.25 0 00.06-.173v-.372q0-.18-.255-.195a2.362 2.362 0 01-.285-.038.28.28 0 01-.158-.082.376.376 0 01-.075-.18 2 2 0 01-.023-.345v-3.315a7.34 7.34 0 00-.075-1.095 1.724 1.724 0 00-.353-.84 1.805 1.805 0 00-.81-.54 4.277 4.277 0 00-1.433-.2q-.27 0-.607.015-.337.015-.683.052-.345.038-.66.1a4.239 4.239 0 00-.54.135.538.538 0 00-.217.15.2.2 0 00-.022.18l.09.39q.045.18.3.135.24-.03.525-.053l.57-.045q.285-.023.548-.03.263-.007.472-.008a2.221 2.221 0 011.372.315 1.415 1.415 0 01.382 1.14v.51h-2.07a3.029 3.029 0 00-2.145.623 2.526 2.526 0 00-.645 1.9 2.264 2.264 0 00.465 1.545 2 2 0 001.56.525 3.9 3.9 0 001.583-.3 11.394 11.394 0 001.239-.629zm.015-2.715v1.755q-.255.15-.577.3-.322.15-.667.277a5.263 5.263 0 01-.683.2 2.885 2.885 0 01-.622.075 1.371 1.371 0 01-.908-.225 1.141 1.141 0 01-.248-.857 1.476 1.476 0 01.4-1.215 1.738 1.738 0 011.1-.315zm7.08 3.06l-.06-.345a.248.248 0 00-.09-.157.441.441 0 00-.24-.023l-.457.037q-.292.023-.413.023a3.148 3.148 0 01-.548-.037.663.663 0 01-.322-.143.494.494 0 01-.158-.27 2.033 2.033 0 01-.037-.435v-4.545h1.665q.165 0 .21-.06a.33.33 0 00.045-.2v-.43a.335.335 0 00-.045-.187q-.045-.068-.21-.068h-1.665v-1.845q0-.3-.255-.225l-.6.165a.438.438 0 00-.187.09.249.249 0 00-.067.195v1.625h-.84q-.255 0-.255.27v.42a.225.225 0 00.255.255h.825v4.89a2.628 2.628 0 00.075.652 1.228 1.228 0 00.255.5 1.14 1.14 0 00.5.322 2.393 2.393 0 00.795.113q.165 0 .4-.023.235-.023.48-.06.248-.038.465-.09a1.421 1.421 0 00.353-.128.28.28 0 00.126-.286zm2.28-8.79a.816.816 0 00-.12-.472q-.12-.172-.525-.173a.6.6 0 00-.518.18.786.786 0 00-.127.465 1.013 1.013 0 00.1.472q.1.2.54.2.42 0 .533-.195a.947.947 0 00.117-.477zm-.09 9v-6.8q0-.255-.24-.255h-.615a.368.368 0 00-.2.045q-.067.045-.067.21v6.8q0 .255.27.255h.615q.242 0 .242-.255zm7.965-3.525a9.122 9.122 0 00-.1-1.335 2.969 2.969 0 00-.428-1.178 2.413 2.413 0 00-.952-.84 3.619 3.619 0 00-1.658-.323 3.119 3.119 0 00-1.635.367 2.5 2.5 0 00-.908.923 3.433 3.433 0 00-.4 1.2 8.625 8.625 0 00-.09 1.185q0 .66.067 1.357a3.331 3.331 0 00.368 1.26 2.361 2.361 0 00.907.923 3.319 3.319 0 001.688.36 3.523 3.523 0 001.74-.36 2.363 2.363 0 00.938-.93 3.4 3.4 0 00.383-1.26 12.494 12.494 0 00.08-1.349zm-1.17.1a8.649 8.649 0 01-.075 1.223 2.129 2.129 0 01-.292.855 1.315 1.315 0 01-.6.5 2.546 2.546 0 01-1 .165 2.2 2.2 0 01-.945-.172 1.325 1.325 0 01-.57-.518 2.267 2.267 0 01-.285-.855 8.363 8.363 0 01-.075-1.2 8.363 8.363 0 01.075-1.2 2.267 2.267 0 01.285-.855 1.325 1.325 0 01.57-.517 2.2 2.2 0 01.945-.173 2.448 2.448 0 011 .173 1.362 1.362 0 01.6.51 2.129 2.129 0 01.292.855 8.524 8.524 0 01.075 1.214zm8.64 3.42v-4.42a8.483 8.483 0 00-.068-1.11 2.219 2.219 0 00-.292-.878 1.536 1.536 0 00-.652-.578 2.67 2.67 0 00-1.163-.21 3.045 3.045 0 00-.795.1 5.636 5.636 0 00-.742.255 5.829 5.829 0 00-.638.315q-.285.165-.465.285l-.045-.015v-.54q0-.165-.068-.21a.368.368 0 00-.2-.045h-.615q-.24 0-.24.255v6.8q0 .255.24.255h.615q.27 0 .27-.255v-5.31q.165-.09.48-.233.315-.143.675-.277.36-.135.72-.24a2.293 2.293 0 01.63-.105 1.9 1.9 0 01.577.075.731.731 0 01.375.27 1.276 1.276 0 01.2.532 4.972 4.972 0 01.06.848l-.015 4.44a.225.225 0 00.256.256h.63q.27 0 .27-.255zm-134.895 16.525l-1.08-3.36a.42.42 0 00-.075-.158.21.21 0 00-.165-.052h-.8q-.1 0-.127.075a.269.269 0 00.007.165l.42 1.425q-.165.525-.345 1.042l-.34 1.013-.675 2.07h-.03l-.66-2.115-.548-1.74-.547-1.725a.359.359 0 00-.082-.158.237.237 0 00-.173-.052h-.81q-.105 0-.127.075a.269.269 0 00.007.165l2.37 6.885a.3.3 0 00.083.135.264.264 0 00.172.045h.66a.239.239 0 00.24-.195l.765-2.325.585-1.785h.03l.308.915q.158.45.293.885l.39 1.177.39 1.147a.3.3 0 00.083.135.264.264 0 00.171.046h.66a.247.247 0 00.255-.195l2.3-6.885q.075-.225-.105-.225h-.835q-.165 0-.225.195l-.99 3.195-.735 2.43h-.03q-.165-.57-.345-1.132zm6.21-5.52a.816.816 0 00-.12-.472q-.125-.173-.525-.173a.6.6 0 00-.517.18.786.786 0 00-.128.465 1.013 1.013 0 00.105.472q.1.2.54.2.42 0 .532-.195a.947.947 0 00.113-.477zm-.09 9v-6.8q0-.255-.24-.255h-.615a.368.368 0 00-.2.045q-.068.045-.068.21v6.8q0 .255.27.255h.615q.238 0 .238-.255zm6-.21l-.06-.345a.248.248 0 00-.09-.158.441.441 0 00-.24-.022l-.458.038q-.292.022-.413.022a3.148 3.148 0 01-.548-.038.663.663 0 01-.323-.142.494.494 0 01-.157-.27 2.033 2.033 0 01-.038-.435v-4.545h1.672q.165 0 .21-.06a.33.33 0 00.045-.195v-.435a.335.335 0 00-.045-.187q-.045-.068-.21-.068h-1.67v-1.845q0-.3-.255-.225l-.6.165a.438.438 0 00-.187.09.249.249 0 00-.068.195v1.62h-.84q-.255 0-.255.27v.42a.225.225 0 00.255.255h.82v4.89a2.629 2.629 0 00.075.653 1.228 1.228 0 00.255.5 1.14 1.14 0 00.5.323 2.393 2.393 0 00.8.113q.165 0 .4-.023.235-.023.48-.06.248-.037.465-.09a1.421 1.421 0 00.352-.128.28.28 0 00.128-.283zm6.765.21v-4.425a8.486 8.486 0 00-.067-1.11 2.219 2.219 0 00-.292-.877 1.536 1.536 0 00-.653-.578 2.67 2.67 0 00-1.163-.21 3.13 3.13 0 00-.8.1 5.5 5.5 0 00-.75.255 6.469 6.469 0 00-.645.315q-.292.165-.472.285l-.015-.015v-3.805q0-.255-.27-.255h-.615q-.24 0-.24.255v10.065q0 .255.24.255h.615q.27 0 .27-.255v-5.31q.165-.09.48-.233.315-.143.675-.277.36-.135.72-.24a2.293 2.293 0 01.63-.1 2.1 2.1 0 01.577.068.721.721 0 01.375.248 1.122 1.122 0 01.2.487 4.238 4.238 0 01.06.788l-.015 4.575a.225.225 0 00.255.249h.63q.27 0 .27-.255zm8.19 2.685l3.435-9.51q.075-.225-.1-.225h-.81a.239.239 0 00-.24.195l-1.14 3.345-.375 1.11-.293.818q-.142.382-.172.472l-.815-2.295-1.23-3.435a.42.42 0 00-.075-.158.21.21 0 00-.165-.052h-.8q-.105 0-.128.075a.269.269 0 00.007.165l2.646 7.065-.87 2.4q-.075.24.135.24h.69a.254.254 0 00.3-.21zm10.575-6.21a9.123 9.123 0 00-.1-1.335 2.969 2.969 0 00-.428-1.177 2.413 2.413 0 00-.952-.84 3.619 3.619 0 00-1.657-.323 3.119 3.119 0 00-1.635.368 2.5 2.5 0 00-.907.922 3.433 3.433 0 00-.4 1.2 8.626 8.626 0 00-.09 1.185q0 .66.068 1.358a3.331 3.331 0 00.368 1.26 2.361 2.361 0 00.908.923 3.319 3.319 0 001.688.36 3.523 3.523 0 001.74-.36 2.362 2.362 0 00.938-.93 3.4 3.4 0 00.382-1.26 12.49 12.49 0 00.077-1.351zm-1.17.105a8.65 8.65 0 01-.075 1.222 2.129 2.129 0 01-.292.855 1.315 1.315 0 01-.6.5 2.546 2.546 0 01-1 .165 2.2 2.2 0 01-.945-.173 1.325 1.325 0 01-.57-.517 2.267 2.267 0 01-.285-.855 9.637 9.637 0 010-2.4 2.267 2.267 0 01.285-.855 1.325 1.325 0 01.57-.517 2.2 2.2 0 01.945-.173 2.448 2.448 0 011 .173 1.362 1.362 0 01.6.51 2.129 2.129 0 01.292.855 8.524 8.524 0 01.075 1.21zm8.715 3.42v-6.8a.225.225 0 00-.255-.255h-.615a.225.225 0 00-.255.255v5.3l-.495.24q-.315.15-.675.285-.36.135-.72.24a2.293 2.293 0 01-.63.1 1.981 1.981 0 01-.585-.075.73.73 0 01-.382-.27 1.268 1.268 0 01-.2-.525 4.945 4.945 0 01-.06-.855v-4.435q0-.255-.24-.255h-.648a.225.225 0 00-.255.255v4.425a8.485 8.485 0 00.068 1.11 2.148 2.148 0 00.3.877 1.578 1.578 0 00.667.578 2.722 2.722 0 001.17.21 3.045 3.045 0 00.8-.1 5.29 5.29 0 00.735-.255 6.887 6.887 0 00.638-.315q.292-.165.472-.285l.03.03v.525q0 .255.27.255h.615a.225.225 0 00.25-.26zm5.76-6.315l-.06-.63a.327.327 0 00-.075-.172q-.045-.038-.18-.008a5.307 5.307 0 00-.615.172q-.33.113-.645.255-.315.142-.577.285a2.857 2.857 0 00-.413.262l-.03-.03v-.614q0-.255-.27-.255h-.625q-.24 0-.24.255v6.8q0 .255.24.255h.645a.225.225 0 00.255-.255v-5.3a2.779 2.779 0 01.42-.172q.285-.1.623-.195l.7-.2q.36-.1.66-.158.232-.025.187-.295zm8.925 6.1l-.06-.345a.248.248 0 00-.09-.158.441.441 0 00-.24-.022l-.458.038q-.292.022-.412.022a3.148 3.148 0 01-.548-.038.663.663 0 01-.323-.142.494.494 0 01-.158-.27 2.034 2.034 0 01-.037-.435v-4.54h1.665q.165 0 .21-.06a.33.33 0 00.045-.195v-.435a.335.335 0 00-.045-.187q-.045-.068-.21-.068h-1.664v-1.845q0-.3-.255-.225l-.6.165a.438.438 0 00-.187.09.249.249 0 00-.067.195v1.62h-.84q-.255 0-.255.27v.42a.225.225 0 00.255.255h.825v4.89a2.629 2.629 0 00.075.653 1.228 1.228 0 00.255.5 1.14 1.14 0 00.495.323 2.393 2.393 0 00.8.113q.165 0 .4-.023.235-.023.48-.06.248-.037.465-.09a1.421 1.421 0 00.353-.128.28.28 0 00.126-.283zm6.72-3.675a8.951 8.951 0 00-.143-1.215 2.725 2.725 0 00-.435-1.065 2.3 2.3 0 00-.908-.75 3.552 3.552 0 00-1.549-.28 2.974 2.974 0 00-1.635.39 2.68 2.68 0 00-.915.967 3.574 3.574 0 00-.4 1.245 9.115 9.115 0 00-.09 1.207 9.907 9.907 0 00.1 1.4 3.2 3.2 0 00.412 1.208 2.3 2.3 0 00.923.847 3.524 3.524 0 001.643.323q.27 0 .6-.03.33-.03.66-.083.33-.052.63-.127a3.408 3.408 0 00.51-.165.243.243 0 00.165-.3l-.06-.33q-.03-.15-.112-.18a.547.547 0 00-.232-.015q-.2.03-.458.06t-.548.052l-.57.045q-.285.022-.51.022a3.079 3.079 0 01-.893-.112 1.28 1.28 0 01-.607-.39 1.677 1.677 0 01-.345-.735 5.735 5.735 0 01-.12-1.132h4.23a.557.557 0 00.548-.247 1.2 1.2 0 00.109-.605zm-1.215-.09h-3.675a4.777 4.777 0 01.135-.915 1.994 1.994 0 01.315-.69 1.4 1.4 0 01.548-.443 1.963 1.963 0 01.833-.157 2.019 2.019 0 01.96.195 1.444 1.444 0 01.555.51 1.963 1.963 0 01.262.712 4.7 4.7 0 01.067.793zm7.29 3.42h.03a1.026 1.026 0 00.323.675 1.245 1.245 0 00.772.195 3.192 3.192 0 00.525-.045.416.416 0 00.24-.1.25.25 0 00.06-.172v-.368q0-.18-.255-.2a2.362 2.362 0 01-.285-.037.28.28 0 01-.158-.083.376.376 0 01-.075-.18 2 2 0 01-.023-.345v-3.31a7.34 7.34 0 00-.075-1.095 1.724 1.724 0 00-.353-.84 1.805 1.805 0 00-.81-.54 4.277 4.277 0 00-1.433-.195q-.27 0-.607.015-.337.015-.683.052-.345.038-.66.1a4.239 4.239 0 00-.54.135.538.538 0 00-.217.15.2.2 0 00-.022.18l.09.39q.045.18.3.135.24-.03.525-.053l.57-.045q.285-.023.548-.03.263-.007.472-.007a2.221 2.221 0 011.372.315 1.415 1.415 0 01.382 1.14v.51h-2.07a3.029 3.029 0 00-2.145.623 2.526 2.526 0 00-.645 1.9 2.264 2.264 0 00.465 1.545 2 2 0 001.56.525 3.9 3.9 0 001.583-.3 11.394 11.394 0 001.239-.635zm.015-2.715v1.76q-.255.15-.577.3-.322.15-.667.278a5.263 5.263 0 01-.683.2 2.885 2.885 0 01-.622.075 1.371 1.371 0 01-.908-.225 1.141 1.141 0 01-.248-.858 1.476 1.476 0 01.4-1.215 1.738 1.738 0 011.1-.315zm13.47 3.27v-4.51a7.341 7.341 0 00-.075-1.095 2.158 2.158 0 00-.3-.847 1.476 1.476 0 00-.652-.548 2.76 2.76 0 00-1.132-.195 3.223 3.223 0 00-1.448.337 10.045 10.045 0 00-1.268.743 1.531 1.531 0 00-.652-.8 2.48 2.48 0 00-1.283-.278 2.781 2.781 0 00-.705.09 4.391 4.391 0 00-.667.233 5.608 5.608 0 00-.6.307l-.5.3h-.013v-.527q0-.255-.27-.255h-.62q-.24 0-.24.255v6.8q0 .255.24.255h.63a.225.225 0 00.255-.255v-5.31q.255-.135.57-.285.315-.15.637-.277a6.088 6.088 0 01.622-.21 2.1 2.1 0 01.555-.083.953.953 0 01.915.405 2.374 2.374 0 01.225 1.14l-.015 4.62q0 .255.225.255h.66a.225.225 0 00.255-.255v-4.49q0-.3-.007-.51a2.644 2.644 0 00-.022-.3l.5-.255q.3-.15.63-.285.33-.135.653-.233a2.061 2.061 0 01.592-.1 1.676 1.676 0 01.57.083.735.735 0 01.36.277 1.25 1.25 0 01.188.51 4.858 4.858 0 01.052.78v4.515a.225.225 0 00.25.258h.63a.225.225 0 00.26-.255zm2.94-2.475l.18-6.96q0-.255-.21-.255h-.66q-.24 0-.24.255l.15 6.96q0 .24.21.24h.39q.165.005.18-.235zm.27 2.175a.851.851 0 00-.127-.487q-.127-.187-.562-.187-.42 0-.548.188a.851.851 0 00-.128.487 1.067 1.067 0 00.113.51q.112.21.563.21.435 0 .563-.21a.965.965 0 00.121-.506z"/><path data-name="Path 2569" d="M134.952 177.048a2.3 2.3 0 00-1.179.266 1.862 1.862 0 00-.693.7 2.9 2.9 0 00-.328.995 7.687 7.687 0 00-.086 1.153 6.836 6.836 0 00.09 1.125 2.655 2.655 0 00.342.954 1.851 1.851 0 00.7.662 2.37 2.37 0 001.154.247q.135 0 .342-.014.207-.014.437-.04.23-.027.455-.072a1.852 1.852 0 00.387-.117q.09-.036.1-.081a.226.226 0 000-.117l-.047-.231a.352.352 0 00-.045-.088q-.031-.041-.13-.023-.324.045-.7.086a7.438 7.438 0 01-.792.04 1.48 1.48 0 01-.8-.193 1.309 1.309 0 01-.478-.522 2.245 2.245 0 01-.22-.747 6.89 6.89 0 01-.054-.873 9.369 9.369 0 01.045-.941 2.343 2.343 0 01.207-.783 1.288 1.288 0 01.468-.535 1.51 1.51 0 01.828-.2 8 8 0 01.805.041q.4.04.7.085.09.018.122-.018a.28.28 0 00.049-.081l.05-.248a.165.165 0 000-.108.217.217 0 00-.117-.09 2.313 2.313 0 00-.4-.117q-.225-.045-.45-.072-.225-.027-.433-.034-.194-.009-.329-.009zm6.084 3.762a5.474 5.474 0 00-.059-.8 1.781 1.781 0 00-.257-.706 1.448 1.448 0 00-.571-.5 2.172 2.172 0 00-.995-.194 1.871 1.871 0 00-.981.22 1.5 1.5 0 00-.544.553 2.06 2.06 0 00-.239.72 5.175 5.175 0 00-.054.711q0 .4.041.815a2 2 0 00.22.756 1.417 1.417 0 00.544.553 1.992 1.992 0 001.014.212 2.114 2.114 0 001.044-.216 1.418 1.418 0 00.563-.556 2.04 2.04 0 00.229-.756 7.494 7.494 0 00.045-.812zm-.7.063a5.19 5.19 0 01-.045.734 1.277 1.277 0 01-.175.513.789.789 0 01-.36.3 1.528 1.528 0 01-.6.1 1.321 1.321 0 01-.567-.1.8.8 0 01-.342-.311 1.36 1.36 0 01-.171-.513 5.018 5.018 0 01-.045-.72 5.018 5.018 0 01.045-.72 1.36 1.36 0 01.171-.513.8.8 0 01.342-.311 1.321 1.321 0 01.567-.1 1.469 1.469 0 01.6.1.817.817 0 01.36.306 1.277 1.277 0 01.175.513 5.115 5.115 0 01.043.727zm7.882 2.052v-2.709a4.4 4.4 0 00-.045-.657 1.3 1.3 0 00-.18-.509.886.886 0 00-.392-.328 1.656 1.656 0 00-.68-.117 1.934 1.934 0 00-.868.2 6.027 6.027 0 00-.76.446.919.919 0 00-.391-.481 1.488 1.488 0 00-.769-.167 1.669 1.669 0 00-.423.054 2.635 2.635 0 00-.4.14 3.364 3.364 0 00-.36.184l-.3.18h-.009v-.313q0-.153-.162-.153h-.369q-.144 0-.144.153v4.077q0 .153.144.153h.371a.135.135 0 00.153-.153v-3.186q.153-.081.342-.171.189-.09.383-.167a3.653 3.653 0 01.373-.126 1.262 1.262 0 01.333-.049.572.572 0 01.549.243 1.424 1.424 0 01.135.684l-.005 2.772q0 .153.135.153h.4a.135.135 0 00.153-.153v-2.997a1.587 1.587 0 00-.014-.18l.3-.153q.18-.09.378-.171.198-.081.392-.14a1.236 1.236 0 01.356-.059 1.006 1.006 0 01.342.049.441.441 0 01.216.167.75.75 0 01.113.306 2.915 2.915 0 01.031.468v2.71a.135.135 0 00.141.153h.378a.135.135 0 00.153-.153zm7.29 0v-2.709a4.4 4.4 0 00-.045-.657 1.3 1.3 0 00-.18-.509.886.886 0 00-.391-.328 1.656 1.656 0 00-.68-.117 1.934 1.934 0 00-.868.2 6.027 6.027 0 00-.76.446.919.919 0 00-.392-.481 1.488 1.488 0 00-.77-.167 1.669 1.669 0 00-.423.054 2.635 2.635 0 00-.4.14 3.364 3.364 0 00-.36.184l-.3.18h-.009v-.313q0-.153-.162-.153h-.369q-.144 0-.144.153v4.077q0 .153.144.153h.378a.135.135 0 00.153-.153v-3.186q.153-.081.342-.171.189-.09.382-.167a3.653 3.653 0 01.373-.126 1.262 1.262 0 01.333-.049.572.572 0 01.549.243 1.424 1.424 0 01.135.684l-.01 2.772q0 .153.135.153h.4a.135.135 0 00.153-.153v-2.997a1.586 1.586 0 00-.014-.18l.3-.153q.18-.09.378-.171.198-.081.392-.14a1.236 1.236 0 01.355-.059 1.006 1.006 0 01.342.049.441.441 0 01.216.167.75.75 0 01.112.306 2.915 2.915 0 01.031.468v2.71a.135.135 0 00.147.153h.378a.135.135 0 00.149-.153zm4.581-2.331a5.371 5.371 0 00-.086-.729 1.635 1.635 0 00-.261-.639 1.38 1.38 0 00-.545-.45 2.131 2.131 0 00-.927-.171 1.784 1.784 0 00-.981.234 1.608 1.608 0 00-.549.58 2.145 2.145 0 00-.243.747 5.468 5.468 0 00-.054.724 5.944 5.944 0 00.059.842 1.92 1.92 0 00.247.725 1.381 1.381 0 00.554.508 2.114 2.114 0 00.986.194q.162 0 .36-.018.198-.018.4-.05.2-.031.378-.077a2.045 2.045 0 00.306-.1.146.146 0 00.1-.18l-.036-.2q-.018-.09-.067-.108a.328.328 0 00-.149-.005q-.117.018-.274.036-.157.018-.326.031l-.342.027q-.171.014-.306.013a1.847 1.847 0 01-.536-.067.768.768 0 01-.365-.234 1.006 1.006 0 01-.207-.441 3.441 3.441 0 01-.072-.679h2.538a.334.334 0 00.329-.148.722.722 0 00.069-.365zm-.729-.054h-2.2a2.866 2.866 0 01.081-.549 1.2 1.2 0 01.189-.414.842.842 0 01.328-.266 1.178 1.178 0 01.5-.094 1.211 1.211 0 01.576.117.867.867 0 01.333.306 1.178 1.178 0 01.157.427 2.818 2.818 0 01.036.473zm5.139 2.385v-2.655a5.092 5.092 0 00-.04-.666 1.332 1.332 0 00-.178-.526.922.922 0 00-.391-.346 1.6 1.6 0 00-.7-.126 1.827 1.827 0 00-.477.063 3.381 3.381 0 00-.445.153 3.5 3.5 0 00-.382.189q-.171.1-.279.171l-.026-.01v-.324q0-.1-.041-.126a.221.221 0 00-.122-.027h-.369q-.144 0-.144.153v4.077q0 .153.144.153h.369q.163 0 .163-.153v-3.186q.1-.054.288-.139.188-.085.4-.167.216-.081.432-.144a1.376 1.376 0 01.378-.063 1.143 1.143 0 01.346.045.438.438 0 01.225.162.765.765 0 01.122.319 2.983 2.983 0 01.036.509l-.002 2.664a.135.135 0 00.153.153h.378q.162 0 .162-.153zm3.411-.126l-.036-.207a.149.149 0 00-.054-.094.264.264 0 00-.139-.014l-.275.022q-.176.014-.247.014a1.889 1.889 0 01-.329-.022.4.4 0 01-.194-.086.3.3 0 01-.094-.162 1.22 1.22 0 01-.022-.261v-2.727h1q.1 0 .126-.036a.2.2 0 00.027-.117v-.261a.2.2 0 00-.027-.112q-.027-.041-.126-.041h-1v-1.107q0-.18-.153-.135l-.36.1a.263.263 0 00-.112.054.149.149 0 00-.041.117v.972h-.5q-.153 0-.153.162v.252a.135.135 0 00.153.153h.495v2.933a1.577 1.577 0 00.032.392.737.737 0 00.153.3.684.684 0 00.3.193 1.436 1.436 0 00.477.068q.1 0 .239-.014.139-.014.288-.036.148-.023.279-.054a.853.853 0 00.212-.077.168.168 0 00.081-.169zm5.445-.072a.533.533 0 00-.076-.3q-.076-.117-.338-.117a.384.384 0 00-.333.117.51.51 0 00-.081.3.641.641 0 00.067.306q.068.126.347.126.261 0 .338-.126a.579.579 0 00.076-.306zm-2.133 0a.558.558 0 00-.072-.3q-.069-.114-.333-.114t-.336.117a.533.533 0 00-.076.3.641.641 0 00.068.306q.067.126.347.126.261 0 .333-.126a.608.608 0 00.069-.309zm-2.124 0a.558.558 0 00-.072-.3q-.072-.117-.333-.117t-.338.117a.533.533 0 00-.076.3.641.641 0 00.068.306q.067.126.347.126.261 0 .333-.126a.608.608 0 00.071-.306z" fill="#868686"/><path data-name="Path 2568" d="M247.154 183.422a1.875 1.875 0 00-.148-.805 1.272 1.272 0 00-.4-.5 1.794 1.794 0 00-.6-.274q-.346-.09-.733-.162-.351-.063-.594-.122a1.282 1.282 0 01-.4-.157.568.568 0 01-.22-.257 1.108 1.108 0 01-.067-.427 1.4 1.4 0 01.058-.414.721.721 0 01.2-.32.943.943 0 01.378-.2 2.067 2.067 0 01.589-.072q.4 0 .8.041t.7.085a.139.139 0 00.122-.027.28.28 0 00.042-.079l.054-.243a.18.18 0 000-.113q-.018-.049-.117-.086a2.313 2.313 0 00-.402-.112q-.225-.045-.45-.072-.225-.027-.423-.036-.2-.009-.333-.009a2.117 2.117 0 00-1.429.428 1.575 1.575 0 00-.5 1.26 1.55 1.55 0 00.149.729 1.172 1.172 0 00.41.446 2.189 2.189 0 00.612.261 7.123 7.123 0 00.756.158 4.812 4.812 0 01.6.139 1.028 1.028 0 01.387.207.7.7 0 01.2.333 1.865 1.865 0 01.058.508.828.828 0 01-.346.711 1.728 1.728 0 01-1.022.252q-.135 0-.328-.009t-.406-.027q-.221-.018-.446-.04-.225-.022-.414-.05-.126-.009-.153.09l-.063.252a.165.165 0 000 .108.217.217 0 00.117.09 1.843 1.843 0 00.365.108q.221.045.455.077t.468.05q.234.018.423.018a3.352 3.352 0 00.787-.09 1.872 1.872 0 00.657-.292 1.394 1.394 0 00.446-.535 1.862 1.862 0 00.161-.821zm4.555 1.512v-.342q0-.153-.144-.153h-2.628v-2.142h2.3q.153 0 .153-.144v-.351q0-.144-.153-.144h-2.3v-1.9h2.556q.162 0 .162-.153v-.351q0-.144-.153-.144h-3.105q-.162 0-.162.153v5.67q0 .144.162.144h3.159a.2.2 0 00.117-.027.143.143 0 00.036-.116zm1.764-4.563l.522.855 2.4 3.708a.428.428 0 00.09.108.231.231 0 00.146.036h.342a.127.127 0 00.144-.144v-5.656a.174.174 0 00-.036-.136.16.16 0 00-.108-.031h-.377a.176.176 0 00-.117.031.174.174 0 00-.036.131v4.5h-.027l-.477-.756-2.439-3.762a.826.826 0 00-.086-.1.194.194 0 00-.14-.04h-.368q-.144 0-.144.135v5.675q0 .153.162.153h.369a.135.135 0 00.153-.153v-4.554zm9.269 1.707a5.918 5.918 0 00-.108-1.161 2.561 2.561 0 00-.378-.939 1.852 1.852 0 00-.738-.63 2.7 2.7 0 00-1.188-.23h-1.71q-.162 0-.162.144v5.663a.149.149 0 00.041.117.228.228 0 00.148.036h1.683a2.675 2.675 0 001.2-.234 1.859 1.859 0 00.738-.643 2.592 2.592 0 00.373-.954 6.24 6.24 0 00.101-1.169zm-.738.072a3.716 3.716 0 01-.158 1.2 1.707 1.707 0 01-.409.689 1.245 1.245 0 01-.556.314 2.515 2.515 0 01-.612.076h-1.109v-4.67h1.17a2.175 2.175 0 01.626.09 1.16 1.16 0 01.536.351 1.888 1.888 0 01.373.729 4.4 4.4 0 01.14 1.224z" fill="#9f9f9f"/><path data-name="Path 2567" d="M100.215 95.078h3.15a.135.135 0 00.153-.153v-.567a.135.135 0 00-.153-.153h-1.116v-4.927a.236.236 0 00-.031-.135q-.032-.045-.149-.045h-.531a1.344 1.344 0 00-.23.018.768.768 0 00-.211.072l-.828.306a.165.165 0 00-.108.095.443.443 0 00-.018.13v.306q0 .09.036.112a.254.254 0 00.126.023h.936v4.045h-1.026a.135.135 0 00-.153.153v.567a.135.135 0 00.153.153zm7.191-4.6l.027.009v2.232h-1.845l.009-.027zm1.008 4.438v-1.323l.667-.009q.144 0 .144-.153v-.576a.127.127 0 00-.144-.144h-.667v-3.456a.15.15 0 00-.033-.095.135.135 0 00-.113-.04h-.646a.387.387 0 00-.171.031.426.426 0 00-.126.1l-2.817 3.397a.313.313 0 00-.076.135.6.6 0 00-.014.126v.513a.14.14 0 00.054.126.222.222 0 00.126.036l2.826.009v1.332a.135.135 0 00.157.153h.675a.152.152 0 00.125-.045.2.2 0 00.033-.117zm2.5-.3a.655.655 0 00-.1-.383q-.1-.148-.446-.148a.513.513 0 00-.441.153.639.639 0 00-.108.378 1.082 1.082 0 00.018.2.4.4 0 00.076.171.4.4 0 00.168.127.762.762 0 00.288.045.733.733 0 00.279-.045.4.4 0 00.167-.121.45.45 0 00.081-.171.873.873 0 00.02-.203zm0-3.024a.655.655 0 00-.1-.383q-.1-.148-.446-.148a.513.513 0 00-.441.153.639.639 0 00-.108.378 1.1 1.1 0 00.018.2.4.4 0 00.076.176.4.4 0 00.168.122.762.762 0 00.288.045.733.733 0 00.279-.045.4.4 0 00.167-.122.45.45 0 00.081-.171.873.873 0 00.02-.202zm3.567-1.114l.027.009v2.232h-1.846l.009-.027zm1.007 4.438v-1.323l.666-.009q.144 0 .144-.153v-.576a.127.127 0 00-.144-.144h-.666v-3.456a.15.15 0 00-.031-.095.135.135 0 00-.112-.04h-.648a.387.387 0 00-.171.031.426.426 0 00-.126.1l-2.819 3.397a.313.313 0 00-.076.135.6.6 0 00-.014.126v.513a.14.14 0 00.054.126.222.222 0 00.126.036l2.826.009v1.332a.135.135 0 00.154.153h.675a.152.152 0 00.131-.045.2.2 0 00.031-.117zm2.133.162h3.15a.135.135 0 00.153-.153v-.567a.135.135 0 00-.153-.153h-1.116v-4.927a.236.236 0 00-.031-.135q-.031-.045-.148-.045h-.531a1.344 1.344 0 00-.23.018.768.768 0 00-.211.072l-.828.306a.165.165 0 00-.108.095.443.443 0 00-.018.13v.306q0 .09.036.112a.254.254 0 00.126.023h.936v4.045h-1.027a.135.135 0 00-.153.153v.567a.135.135 0 00.153.153z" fill="rgba(159,159,159,0.69)"/><g data-name="Canvas---Messaging-(Atif-laptop)"><path d="M69.823 184.037l1.106-1.056 4.977-4.75a2.426 2.426 0 013.313.006 2.168 2.168 0 01.006 3.161l-4.977 4.749a.539.539 0 01-.737 0 .482.482 0 010-.7l4.977-4.752a1.2 1.2 0 000-1.759 1.348 1.348 0 00-1.843 0l-4.978 4.75-1.107 1.051a2.169 2.169 0 000 3.168 2.427 2.427 0 003.319 0l.922-.88 5.161-4.926.369-.352a3.131 3.131 0 00-.037-4.54 3.506 3.506 0 00-4.756-.035l-5.53 5.279a.539.539 0 01-.5.129.51.51 0 01-.369-.352.483.483 0 01.135-.481l5.53-5.278a4.583 4.583 0 016.26.007 4.1 4.1 0 01.007 5.975l-5.533 5.278-.923.88a3.506 3.506 0 01-4.745-.046 3.131 3.131 0 01-.047-4.526z" data-name="Reply-/-Icons"/></g><g data-name="New-Canvas"><g data-name="Canvas---Messaging-(Atif-laptop)"><g data-name="Comments-Section"><path d="M115.671 183.288v-1.611a.467.467 0 01.934 0v1.613a3.565 3.565 0 007.13 0v-1.613a.467.467 0 11.934 0v1.613a4.5 4.5 0 01-4.032 4.469v.978h1.146a.467.467 0 010 .934h-3.226a.467.467 0 110-.934h1.146v-.98a4.5 4.5 0 01-4.032-4.469zm2.487-6.228v5.827a2.082 2.082 0 104.145 0v-5.828a2.082 2.082 0 10-4.145 0zm5.047 5.827a2.984 2.984 0 11-5.948 0v-5.828a2.984 2.984 0 115.948 0z" data-name="Reply-/-Icons"/></g></g></g><g data-name="New-Canvas"><g data-name="Canvas---Messaging-(Atif-laptop)"><g data-name="Comments-Section"><path d="M106.433 186.514a.306.306 0 00.3-.02.316.316 0 00.147-.272v-7.455a.314.314 0 00-.146-.271.3.3 0 00-.3-.021l-2.37 1.099v5.84zm-3.349-.288v-7.465a.186.186 0 00-.184-.186H91.978a.186.186 0 00-.184.186v7.465a.185.185 0 00.184.186h10.923a.185.185 0 00.184-.186zm2.936-8.646a1.286 1.286 0 011.244.085 1.306 1.306 0 01.6 1.1v7.455a1.3 1.3 0 01-1.843 1.186l-1.984-.919a1.167 1.167 0 01-1.136.912H91.978a1.169 1.169 0 01-1.164-1.171v-7.467a1.169 1.169 0 011.164-1.174h8.769v-1.269a.1.1 0 00-.094-.1h-9.349a.492.492 0 010-.985h9.35a1.079 1.079 0 011.075 1.081v1.273h1.173a1.168 1.168 0 011.136.912z" data-name="Reply-/-Icons"/></g></g></g><g data-name="002-interface" fill="#9f9f9f"><path d="M256.112 77.303h-.4a.268.268 0 000 .536h.4a.268.268 0 000-.536z"/><path data-name="Shape" d="M258.088 75.158h-1.581a1.6 1.6 0 00-1.581-1.609h-1.976a1.6 1.6 0 00-1.581 1.609h-1.45a1.333 1.333 0 00-1.317 1.34v.536a.8.8 0 00.685.791l.676 7.36a1.328 1.328 0 001.318 1.22h5.45a1.328 1.328 0 001.318-1.22l.672-7.359a.8.8 0 00.685-.791v-.537a1.333 1.333 0 00-1.318-1.34zm-5.138-1.073h1.976a1.066 1.066 0 011.054 1.073h-4.084a1.066 1.066 0 011.054-1.073zm5.929 2.949a.267.267 0 01-.264.268h-.131a.271.271 0 00-.264.241l-.7 7.6a.805.805 0 01-.791.737h-5.452a.805.805 0 01-.791-.737l-.672-7.304h4.717a.268.268 0 000-.536h-5.139a.267.267 0 01-.264-.268v-.537a.8.8 0 01.791-.8h8.169a.8.8 0 01.791.8z"/><path data-name="Shape" d="M251.896 78.911a.267.267 0 00-.264.268v5.094a.264.264 0 10.527 0v-5.094a.267.267 0 00-.263-.268zm2.108 0a.267.267 0 00-.264.268v5.094a.264.264 0 10.527 0v-5.094a.267.267 0 00-.263-.268zm2.107 0a.267.267 0 00-.264.268v5.094a.264.264 0 10.527 0v-5.094a.267.267 0 00-.263-.268z"/></g><g data-name="Group 1997" transform="translate(65.081 74.078)"><ellipse data-name="Ellipse 177" cx="12.5" cy="12" rx="12.5" ry="12" fill="rgba(152,213,238,0.29)"/><g data-name="Mask Group 4"><g data-name="Group 1996" clip-path="url(#b)"><path data-name="Path 1892" d="M11.164 36.84c1.069 4.167-.3 6.58-.3 6.58h1.261" fill="none" stroke="#0a090b" stroke-linecap="round" stroke-miterlimit="10" stroke-width=".659"/><path data-name="Path 1893" d="M13.687 36.84c1.069 4.167-.3 6.58-.3 6.58h1.261" fill="none" stroke="#0a090b" stroke-linecap="round" stroke-miterlimit="10" stroke-width=".659"/><path data-name="Path 1894" d="M12.427 4.435a8.389 8.389 0 018.389 8.389v15.983a8.389 8.389 0 01-8.389 8.389 8.389 8.389 0 01-8.389-8.389V12.824a8.389 8.389 0 018.389-8.389z" fill="#98d5ee"/><path data-name="Path 1895" d="M12.427 4.435a8.389 8.389 0 018.389 8.389v15.983a8.389 8.389 0 01-8.389 8.389 8.389 8.389 0 01-8.389-8.389V12.824a8.389 8.389 0 018.389-8.389z" fill="#98d5ee"/><g data-name="Group 1974" transform="translate(4.038 4.435)" clip-path="url(#c)"><path data-name="Path 1896" d="M18.81 21.796c-6.8-4.5-13.6 4.5-20.4 0v-4.5c6.8 4.5 13.6-4.5 20.4 0z" fill="#7dc2ee"/></g><g data-name="Group 1975" transform="translate(4.038 4.435)" clip-path="url(#c)"><path data-name="Path 1898" d="M18.81 28.43c-6.8-4.5-13.6 4.5-20.4 0v-4.5c6.8 4.5 13.6-4.5 20.4 0z" fill="#7dc2ee"/></g><path data-name="Path 1909" d="M12.618 5.477a.491.491 0 01-.493-.493V2.626a.491.491 0 01.493-.493.491.491 0 01.493.493v2.358a.491.491 0 01-.493.493z" fill="#98d5ee"/><path data-name="Path 1910" d="M12.562 5.367a.515.515 0 01-.082-.713l1.482-1.812a.515.515 0 01.713-.082.515.515 0 01.082.713l-1.48 1.809a.518.518 0 01-.715.085z" fill="#98d5ee"/><path data-name="Path 1911" d="M10.451 2.763a.515.515 0 00-.082.713l1.48 1.809a.515.515 0 00.713.082.515.515 0 00.082-.713l-1.48-1.809a.515.515 0 00-.713-.082z" fill="#98d5ee"/><g data-name="Group 1980" transform="translate(6.615 10.329)"><circle data-name="Ellipse 164" cx="2.495" cy="2.495" r="2.495" transform="translate(0 1.645)" fill="#fff"/><circle data-name="Ellipse 165" cx="1.809" cy="1.809" r="1.809" transform="translate(1.097 1.946)" fill="#050604"/><ellipse data-name="Ellipse 166" cx=".603" cy="1.535" rx=".603" ry="1.535" transform="rotate(-87.483 5.014 3.824)" fill="#ee7382"/><path data-name="Path 1912" d="M5.538 7.566c.576.987 1.371.685 1.864.027" fill="none" stroke="#050604" stroke-miterlimit="10" stroke-width=".659"/><circle data-name="Ellipse 167" cx="2.495" cy="2.495" r="2.495" transform="translate(7.457 1.398)" fill="#fff"/><circle data-name="Ellipse 168" cx="1.809" cy="1.809" r="1.809" transform="translate(8.581 1.727)" fill="#050604"/><ellipse data-name="Ellipse 169" cx=".603" cy="1.535" rx=".603" ry="1.535" transform="rotate(-87.483 8.64 -.392)" fill="#ee7382"/><path data-name="Path 1913" d="M8.828.411a1.571 1.571 0 011.837-.192" fill="none" stroke="#050604" stroke-miterlimit="10" stroke-width=".659"/><path data-name="Path 1914" d="M1.645.822A1.571 1.571 0 013.482.63" fill="none" stroke="#050604" stroke-miterlimit="10" stroke-width=".659"/></g></g></g></g><g filter="url(#d)" transform="translate(0 .5)"><rect data-name="Rectangle 373" width="70" height="30" rx="15" transform="translate(31.77 30.58)" fill="#fff"/></g><path data-name="Path 1946" d="M56.382 40.949h-9.348a1.735 1.735 0 00-1.732 1.732v6.211a1.735 1.735 0 001.732 1.732l1.335-.048v1.975a.274.274 0 00.155.246.269.269 0 00.118.027.275.275 0 00.172-.061l2.615-2.139h4.952a1.735 1.735 0 001.733-1.732v-6.211a1.735 1.735 0 00-1.732-1.732zm1.187 7.943a1.187 1.187 0 01-1.187 1.185H51.43a.493.493 0 00-.314.112l-2.2 1.787v-1.4a.5.5 0 00-.5-.5h-1.382a1.187 1.187 0 01-1.182-1.184v-6.211a1.188 1.188 0 011.185-1.185h9.348a1.187 1.187 0 011.187 1.185z" fill="#161615"/><path data-name="Path 1947" d="M55.31 43.548h-7.2a.274.274 0 000 .547h7.2a.274.274 0 100-.547z" fill="#161615"/><path data-name="Path 1948" d="M55.31 45.36h-7.2a.274.274 0 000 .547h7.2a.274.274 0 100-.547z" fill="#161615"/><path data-name="Path 1949" d="M51.708 47.171h-3.6a.274.274 0 000 .547h3.6a.274.274 0 100-.547z" fill="#161615"/><path data-name="Path 1950" d="M88.119 41.233H82.68v-.566a.547.547 0 10-1.093 0v.566H76.15a.547.547 0 000 1.094h.036v7.111a1.173 1.173 0 001.172 1.171h1.2l-.161.694a.791.791 0 101.542.357l.244-1.052h3.893l.244 1.052a.791.791 0 101.542-.357l-.161-.694h1.206a1.173 1.173 0 001.172-1.171v-7.105h.036a.547.547 0 100-1.094zm-.309 8.2a.9.9 0 01-.9.9h-9.553a.9.9 0 01-.9-.9v-7.1H87.81z" fill="#161615"/><path data-name="Path 1955" d="M66.984 38.987v13.836" fill="none" stroke="#d0d0d0" stroke-width=".5"/></g></svg>