<svg xmlns="http://www.w3.org/2000/svg" width="41.326" height="29.837"><g fill="#14c8d5"><path data-name="Path 114" d="M40.47 4.986A5.824 5.824 0 0036.39.844C34.342.286 25.026.03 20.199.002S7.027.275 4.937.844a5.824 5.824 0 00-4.08 4.141C.01 8.197 0 14.632 0 14.905s.01 6.708.857 9.919a5.821 5.821 0 004.079 4.141c3.165.862 15.216.872 15.727.872s12.563-.01 15.727-.872a5.82 5.82 0 004.08-4.141c.846-3.211.856-9.647.856-9.919s-.01-6.708-.856-9.919zm-1.561 19.427a4.2 4.2 0 01-2.943 2.995c-2.958.805-15.18.815-15.3.815s-12.345-.01-15.3-.815a4.2 4.2 0 01-2.942-2.995c-.794-3.01-.8-9.444-.8-9.508s.009-6.5.8-9.508a4.2 4.2 0 012.942-2.995c1.505-.41 8.357-.938 14.994-.815s14.14.414 15.613.815a4.206 4.206 0 012.942 2.995c.793 3.009.8 9.443.8 9.508s-.017 6.498-.806 9.508z"/><path data-name="Path 115" d="M16.798 21.645a.817.817 0 01-.4-.107.808.808 0 01-.4-.7V9.215a.807.807 0 01.4-.7.807.807 0 01.808 0l10.009 5.812a.808.808 0 01.4.7.808.808 0 01-.4.7l-10.009 5.811a.8.8 0 01-.408.107zm.807-11.028v8.819l7.594-4.409z"/></g></svg>